<svg width="16" height="16" viewBox="0 0 16 16" fill="none" xmlns="http://www.w3.org/2000/svg">
<path d="M7.99375 1.19238C4.12969 1.19082 1 4.31895 1 8.17988C1 11.233 2.95781 13.8283 5.68437 14.7814C6.05156 14.8736 5.99531 14.6127 5.99531 14.4346V13.2236C3.875 13.4721 3.78906 12.0689 3.64687 11.8346C3.35938 11.3439 2.67969 11.2189 2.88281 10.9846C3.36562 10.7361 3.85781 11.0471 4.42812 11.8893C4.84062 12.5002 5.64531 12.3971 6.05312 12.2955C6.14219 11.9283 6.33281 11.6002 6.59531 11.3455C4.39844 10.9518 3.48281 9.61113 3.48281 8.01738C3.48281 7.24395 3.7375 6.53301 4.2375 5.95957C3.91875 5.01426 4.26719 4.20488 4.31406 4.08457C5.22188 4.00332 6.16562 4.73457 6.23906 4.79238C6.75469 4.65332 7.34375 4.57988 8.00313 4.57988C8.66563 4.57988 9.25625 4.65645 9.77656 4.79707C9.95312 4.6627 10.8281 4.03457 11.6719 4.11113C11.7172 4.23145 12.0578 5.02207 11.7578 5.95488C12.2641 6.52988 12.5219 7.24707 12.5219 8.02207C12.5219 9.61895 11.6 10.9611 9.39688 11.3486C9.58558 11.5342 9.73541 11.7555 9.83763 11.9997C9.93984 12.2438 9.99238 12.5058 9.99219 12.7705V14.5283C10.0047 14.6689 9.99219 14.808 10.2266 14.808C12.9937 13.8752 14.9859 11.2611 14.9859 8.18145C14.9859 4.31895 11.8547 1.19238 7.99375 1.19238Z" fill="#00AEFF"/>
</svg>
