<svg width="16" height="16" viewBox="0 0 16 16" fill="none" xmlns="http://www.w3.org/2000/svg">
<path d="M11.8047 8.19539C11.7429 8.13342 11.6694 8.08426 11.5885 8.05072C11.5076 8.01718 11.4209 7.99992 11.3334 7.99992C11.2458 7.99992 11.1591 8.01718 11.0783 8.05072C10.9974 8.08426 10.9239 8.13342 10.8621 8.19539L9.79939 9.25805C9.30673 9.11139 8.38739 8.77805 7.80473 8.19539C7.22206 7.61272 6.88873 6.69339 6.74206 6.20072L7.80473 5.13805C7.86669 5.07619 7.91585 5.00273 7.94939 4.92185C7.98293 4.84097 8.00019 4.75428 8.00019 4.66672C8.00019 4.57916 7.98293 4.49247 7.94939 4.41159C7.91585 4.33071 7.86669 4.25724 7.80473 4.19539L5.13806 1.52872C5.0762 1.46676 5.00273 1.4176 4.92186 1.38406C4.84098 1.35052 4.75428 1.33325 4.66673 1.33325C4.57917 1.33325 4.49247 1.35052 4.4116 1.38406C4.33072 1.4176 4.25725 1.46676 4.19539 1.52872L2.38739 3.33672C2.13406 3.59005 1.99139 3.93805 1.99673 4.29339C2.01206 5.24272 2.26339 8.54005 4.86206 11.1387C7.46073 13.7374 10.7581 13.9881 11.7081 14.0041H11.7267C12.0787 14.0041 12.4114 13.8654 12.6634 13.6134L14.4714 11.8054C14.5334 11.7435 14.5825 11.6701 14.6161 11.5892C14.6496 11.5083 14.6669 11.4216 14.6669 11.3341C14.6669 11.2465 14.6496 11.1598 14.6161 11.0789C14.5825 10.998 14.5334 10.9246 14.4714 10.8627L11.8047 8.19539ZM11.7201 12.6701C10.8881 12.6561 8.04139 12.4327 5.80473 10.1954C3.56073 7.95139 3.34339 5.09472 3.33006 4.27939L4.66673 2.94272L6.39073 4.66672L5.52873 5.52872C5.45037 5.60702 5.39275 5.70361 5.36109 5.80976C5.32943 5.91592 5.32473 6.02829 5.34739 6.13672C5.36339 6.21339 5.75473 8.03139 6.86139 9.13805C7.96806 10.2447 9.78606 10.6361 9.86273 10.6521C9.97109 10.6754 10.0836 10.671 10.1898 10.6395C10.2961 10.6079 10.3927 10.5501 10.4707 10.4714L11.3334 9.60939L13.0574 11.3334L11.7201 12.6701Z" fill="#4C5059"/>
</svg>
