<svg width="24" height="23" viewBox="0 0 24 23" fill="none" xmlns="http://www.w3.org/2000/svg">
<path d="M9 8.87891H10.5V17.2886H9V8.87891Z" fill="#084482"/>
<path d="M13.5 8.87891H15V17.2886H13.5V8.87891Z" fill="#084482"/>
<path d="M3 4.67407V6.07569H4.5V20.0919C4.5 20.4636 4.65804 20.8201 4.93934 21.083C5.22064 21.3459 5.60218 21.4935 6 21.4935H18C18.3978 21.4935 18.7794 21.3459 19.0607 21.083C19.342 20.8201 19.5 20.4636 19.5 20.0919V6.07569H21V4.67407H3ZM6 20.0919V6.07569H18V20.0919H6Z" fill="#084482"/>
<path d="M9 1.87085H15V3.27247H9V1.87085Z" fill="#084482"/>
</svg>
