<svg width="16" height="16" viewBox="0 0 16 16" fill="none" xmlns="http://www.w3.org/2000/svg">
<path d="M10.6867 6.58667H9.01675V6.172H10.6874V6.58733L10.6867 6.58667ZM7.90475 8.28867C8.01275 8.45533 8.06608 8.658 8.06608 8.896C8.06608 9.14267 8.00608 9.36267 7.88208 9.558C7.79948 9.69522 7.68906 9.81362 7.55794 9.90559C7.42682 9.99756 7.27789 10.0611 7.12075 10.092C6.92783 10.1306 6.73148 10.1494 6.53475 10.148H4.66675V6H6.67008C7.17475 6.008 7.53275 6.15467 7.74408 6.442C7.87075 6.618 7.93408 6.82933 7.93408 7.07533C7.93408 7.32867 7.87075 7.532 7.74208 7.686C7.67141 7.77267 7.56608 7.85133 7.42675 7.922C7.63741 7.99933 7.79741 8.12067 7.90475 8.28867ZM5.62341 7.63533H6.50141C6.68141 7.63533 6.82741 7.60133 6.93941 7.53267C7.05208 7.464 7.10808 7.34267 7.10808 7.168C7.10808 6.97467 7.03408 6.84667 6.88541 6.78533C6.72657 6.73776 6.56118 6.71571 6.39541 6.72H5.62341V7.63533ZM7.19275 8.83667C7.19275 8.62133 7.10408 8.47267 6.92875 8.39267C6.83008 8.34733 6.69141 8.324 6.51408 8.322H5.62341V9.42733H6.50008C6.68008 9.42733 6.82008 9.404 6.92008 9.35467C7.10141 9.26467 7.19275 9.09267 7.19275 8.83667ZM11.3067 8.162C11.3267 8.298 11.3361 8.49467 11.3327 8.752H9.16941C9.18141 9.05067 9.28408 9.25933 9.48008 9.37867C9.59741 9.454 9.74008 9.49067 9.90808 9.49067C10.0847 9.49067 10.2281 9.446 10.3394 9.354C10.4057 9.29741 10.4599 9.22802 10.4987 9.15H11.2921C11.2707 9.32667 11.1754 9.50533 11.0041 9.68733C10.7374 9.976 10.3654 10.1207 9.88608 10.1207C9.50511 10.1256 9.13457 9.99626 8.83941 9.75533C8.53808 9.51133 8.38608 9.11533 8.38608 8.56533C8.38608 8.05 8.52275 7.65533 8.79541 7.38067C9.06875 7.10533 9.42275 6.96867 9.85875 6.96867C10.1167 6.96867 10.3494 7.01467 10.5574 7.10733C10.7641 7.20067 10.9354 7.34667 11.0701 7.54733C11.1921 7.72467 11.2701 7.92867 11.3067 8.162ZM10.5267 8.23933C10.5121 8.03267 10.4427 7.87667 10.3187 7.77C10.1908 7.661 10.0268 7.60349 9.85875 7.60867C9.65875 7.60867 9.50475 7.66667 9.39475 7.77933C9.28475 7.89267 9.21608 8.046 9.18808 8.23933H10.5267Z" fill="#4C5059"/>
<path d="M3.99992 2.66659C3.6463 2.66659 3.30716 2.80706 3.05711 3.05711C2.80706 3.30716 2.66659 3.6463 2.66659 3.99992V11.9999C2.66659 12.3535 2.80706 12.6927 3.05711 12.9427C3.30716 13.1928 3.6463 13.3333 3.99992 13.3333H11.9999C12.3535 13.3333 12.6927 13.1928 12.9427 12.9427C13.1928 12.6927 13.3333 12.3535 13.3333 11.9999V3.99992C13.3333 3.6463 13.1928 3.30716 12.9427 3.05711C12.6927 2.80706 12.3535 2.66659 11.9999 2.66659H3.99992ZM3.99992 1.33325H11.9999C12.7072 1.33325 13.3854 1.6142 13.8855 2.1143C14.3856 2.6144 14.6666 3.29267 14.6666 3.99992V11.9999C14.6666 12.7072 14.3856 13.3854 13.8855 13.8855C13.3854 14.3856 12.7072 14.6666 11.9999 14.6666H3.99992C3.29267 14.6666 2.6144 14.3856 2.1143 13.8855C1.6142 13.3854 1.33325 12.7072 1.33325 11.9999V3.99992C1.33325 3.29267 1.6142 2.6144 2.1143 2.1143C2.6144 1.6142 3.29267 1.33325 3.99992 1.33325Z" fill="#4C5059"/>
</svg>
