<svg width="18" height="20" viewBox="0 0 18 20" fill="none" xmlns="http://www.w3.org/2000/svg">
<path d="M5 19H13C14.1046 19 15 18.0519 15 16.8824V5.23529C15 4.65052 14.5523 4.17647 14 4.17647H4C3.44772 4.17647 3 4.65052 3 5.23529V16.8824C3 18.0519 3.89543 19 5 19Z" fill="black" fill-opacity="0.2"/>
<path d="M6 2.05882C6 1.47405 6.44772 1 7 1H11C11.5523 1 12 1.47405 12 2.05882V3.11765C12 3.70242 11.5523 4.17647 11 4.17647H7C6.44772 4.17647 6 3.70242 6 3.11765V2.05882Z" fill="black" fill-opacity="0.2"/>
<path d="M1 4.17647H17M7 14.7647V8.41177M11 14.7647V8.41177M13 19H5C3.89543 19 3 18.0519 3 16.8824V5.23529C3 4.65052 3.44772 4.17647 4 4.17647H14C14.5523 4.17647 15 4.65052 15 5.23529V16.8824C15 18.0519 14.1046 19 13 19ZM7 4.17647H11C11.5523 4.17647 12 3.70242 12 3.11765V2.05882C12 1.47405 11.5523 1 11 1H7C6.44772 1 6 1.47405 6 2.05882V3.11765C6 3.70242 6.44772 4.17647 7 4.17647Z" stroke="white" stroke-width="2" stroke-linecap="round" stroke-linejoin="round"/>
</svg>
