<svg width="22" height="20" viewBox="0 0 22 20" fill="none" xmlns="http://www.w3.org/2000/svg">
<mask id="mask0_12743_1207" style="mask-type:alpha" maskUnits="userSpaceOnUse" x="0" y="0" width="24" height="24">
<rect width="24" height="24" fill="#D9D9D9"/>
</mask>
<g mask="url(#mask0_12743_1207)">
<path d="M3.77508 19.1259C3.30573 19.1259 2.90394 18.9588 2.56971 18.6245C2.23548 18.2903 2.06836 17.8885 2.06836 17.4192V8.43462C2.06836 8.24439 2.1369 8.08064 2.27398 7.94339C2.41107 7.80614 2.57581 7.73752 2.76821 7.73752C2.96061 7.73752 3.12523 7.80614 3.26208 7.94339C3.39893 8.08064 3.46736 8.24439 3.46736 8.43462V17.4192C3.46736 17.4961 3.49942 17.5666 3.56353 17.6307C3.62763 17.6948 3.69815 17.7269 3.77508 17.7269H18.2942C18.4845 17.7269 18.6482 17.7955 18.7854 17.9329C18.9227 18.0702 18.9913 18.234 18.9913 18.4243C18.9913 18.6183 18.9227 18.7837 18.7854 18.9206C18.6482 19.0575 18.4845 19.1259 18.2942 19.1259H3.77508ZM7.23466 15.6865C6.76531 15.6865 6.36352 15.5194 6.02928 15.1851C5.69505 14.8509 5.52793 14.4491 5.52793 13.9798V6.50385C5.52793 6.0345 5.69505 5.6327 6.02928 5.29847C6.36352 4.96424 6.76531 4.79712 7.23466 4.79712H20.225C20.6943 4.79712 21.0961 4.96424 21.4304 5.29847C21.7646 5.6327 21.9317 6.0345 21.9317 6.50385V13.9798C21.9317 14.4491 21.7646 14.8509 21.4304 15.1851C21.0961 15.5194 20.6943 15.6865 20.225 15.6865H7.23466ZM8.67406 14.2875C8.67406 13.7971 8.50298 13.38 8.16083 13.0361C7.8187 12.6922 7.4074 12.5202 6.92693 12.5202V13.9798C6.92693 14.0631 6.95739 14.1352 7.01831 14.1961C7.07921 14.257 7.15133 14.2875 7.23466 14.2875H8.67406ZM18.7856 14.2875H20.225C20.3083 14.2875 20.3805 14.257 20.4414 14.1961C20.5023 14.1352 20.5327 14.0631 20.5327 13.9798V12.5202C20.0467 12.5202 19.634 12.6926 19.2946 13.0373C18.9553 13.382 18.7856 13.7987 18.7856 14.2875ZM13.726 12.5903C14.3869 12.5903 14.9425 12.3621 15.3928 11.9055C15.8431 11.449 16.0683 10.891 16.0683 10.2314C16.0683 9.57886 15.8415 9.02602 15.388 8.57292C14.9346 8.11984 14.3802 7.89329 13.7251 7.89329C13.0699 7.89329 12.5138 8.11818 12.0568 8.56794C11.5997 9.01773 11.3712 9.5744 11.3712 10.238C11.3712 10.8973 11.5985 11.4541 12.0529 11.9086C12.5074 12.3631 13.0651 12.5903 13.726 12.5903ZM6.92693 7.96342C7.41295 7.96342 7.82564 7.79107 8.16501 7.44637C8.50438 7.10165 8.67406 6.6849 8.67406 6.19612H7.23466C7.15133 6.19612 7.07921 6.22658 7.01831 6.28749C6.95739 6.34839 6.92693 6.42051 6.92693 6.50385V7.96342ZM20.5327 7.96342V6.50385C20.5327 6.42051 20.5023 6.34839 20.4414 6.28749C20.3805 6.22658 20.3083 6.19612 20.225 6.19612H18.7856C18.7856 6.6865 18.9567 7.10365 19.2988 7.44757C19.641 7.79147 20.0523 7.96342 20.5327 7.96342Z" fill="white"/>
</g>
</svg>
